<svg xmlns="http://www.w3.org/2000/svg" version="1.1" xmlns:xlink="http://www.w3.org/1999/xlink" width="1000" height="1000"><g clip-path="url(#SvgjsClipPath1023)"><rect width="1000" height="1000" fill="#ffffff"></rect><g transform="matrix(31.25,0,0,31.25,0,0)"><svg xmlns="http://www.w3.org/2000/svg" version="1.1" xmlns:xlink="http://www.w3.org/1999/xlink" width="32" height="32"><svg width="32" height="32" viewBox="0 0 32 32" xmlns="http://www.w3.org/2000/svg">
  <defs>
    <linearGradient id="gradient" x1="0%" y1="0%" x2="100%" y2="100%">
      <stop offset="0%" style="stop-color:#4F46E5;stop-opacity:1"></stop>
      <stop offset="100%" style="stop-color:#7C3AED;stop-opacity:1"></stop>
    </linearGradient>
  <clipPath id="SvgjsClipPath1023"><rect width="1000" height="1000" x="0" y="0" rx="350" ry="350"></rect></clipPath></defs>
  
  <!-- Background circle -->
  <circle cx="16" cy="16" r="15" fill="url(#gradient)" stroke="#312E81" stroke-width="1"></circle>
  
  <!-- Clipboard/List background -->
  <rect x="8" y="6" width="16" height="20" rx="2" fill="#FFFFFF" stroke="#E5E7EB" stroke-width="0.5"></rect>
  
  <!-- Header line -->
  <line x1="10" y1="9" x2="22" y2="9" stroke="#9CA3AF" stroke-width="0.5"></line>
  
  <!-- Task items -->
  <!-- Task 1 - Completed -->
  <circle cx="11" cy="13" r="1.5" fill="#10B981" stroke="#059669" stroke-width="0.5"></circle>
  <path d="M10 13 L10.7 13.7 L12 12.4" stroke="#FFFFFF" stroke-width="1" fill="none" stroke-linecap="round"></path>
  <line x1="13.5" y1="13" x2="21" y2="13" stroke="#9CA3AF" stroke-width="0.8" opacity="0.7"></line>
  
  <!-- Task 2 - Completed -->
  <circle cx="11" cy="17" r="1.5" fill="#10B981" stroke="#059669" stroke-width="0.5"></circle>
  <path d="M10 17 L10.7 17.7 L12 16.4" stroke="#FFFFFF" stroke-width="1" fill="none" stroke-linecap="round"></path>
  <line x1="13.5" y1="17" x2="19" y2="17" stroke="#9CA3AF" stroke-width="0.8" opacity="0.7"></line>
  
  <!-- Task 3 - Pending -->
  <circle cx="11" cy="21" r="1.5" fill="#F3F4F6" stroke="#D1D5DB" stroke-width="0.5"></circle>
  <line x1="13.5" y1="21" x2="20" y2="21" stroke="#374151" stroke-width="0.8"></line>
  
  <!-- Task 4 - Pending -->
  <circle cx="11" cy="25" r="1.5" fill="#F3F4F6" stroke="#D1D5DB" stroke-width="0.5"></circle>
  <line x1="13.5" y1="25" x2="18" y2="25" stroke="#374151" stroke-width="0.8"></line>
</svg></svg></g></g></svg>